/* XPM */
static char * portal_xpm[] = {
"48 48 222 2",
"  	c None",
". 	c #2B2B2B",
"+ 	c #2A2A2A",
"@ 	c #2E2E2E",
"# 	c #323232",
"$ 	c #353535",
"% 	c #373737",
"& 	c #393939",
"* 	c #333333",
"= 	c #343434",
"- 	c #383838",
"; 	c #2F2F2F",
"> 	c #303030",
", 	c #3A3A3A",
"' 	c #3D3D3D",
") 	c #3F3F3F",
"! 	c #414141",
"~ 	c #404040",
"{ 	c #3E3E3E",
"] 	c #3B3B3B",
"^ 	c #444444",
"/ 	c #484848",
"( 	c #4B4B4B",
"_ 	c #4D4D4D",
": 	c #4F4F4F",
"< 	c #505050",
"[ 	c #282828",
"} 	c #2C2C2C",
"| 	c #434343",
"1 	c #4E4E4E",
"2 	c #535353",
"3 	c #575757",
"4 	c #5B5B5B",
"5 	c #5D5D5D",
"6 	c #5F5F5F",
"7 	c #606060",
"8 	c #585858",
"9 	c #545454",
"0 	c #4A4A4A",
"a 	c #3C3C3C",
"b 	c #626262",
"c 	c #676767",
"d 	c #6B6B6B",
"e 	c #6D6D6D",
"f 	c #6F6F6F",
"g 	c #717171",
"h 	c #6E6E6E",
"i 	c #686868",
"j 	c #646464",
"k 	c #595959",
"l 	c #525252",
"m 	c #292929",
"n 	c #363636",
"o 	c #474747",
"p 	c #666666",
"q 	c #727272",
"r 	c #777777",
"s 	c #7B7B7B",
"t 	c #7E7E7E",
"u 	c #808080",
"v 	c #828282",
"w 	c #818181",
"x 	c #7F7F7F",
"y 	c #7C7C7C",
"z 	c #787878",
"A 	c #747474",
"B 	c #696969",
"C 	c #515151",
"D 	c #494949",
"E 	c #656565",
"F 	c #767676",
"G 	c #7D7D7D",
"H 	c #878787",
"I 	c #8B8B8B",
"J 	c #8E8E8E",
"K 	c #919191",
"L 	c #929292",
"M 	c #8F8F8F",
"N 	c #8C8C8C",
"O 	c #888888",
"P 	c #848484",
"Q 	c #707070",
"R 	c #5E5E5E",
"S 	c #555555",
"T 	c #4C4C4C",
"U 	c #424242",
"V 	c #313131",
"W 	c #565656",
"X 	c #616161",
"Y 	c #858585",
"Z 	c #979797",
"` 	c #9B9B9B",
" .	c #9E9E9E",
"..	c #A0A0A0",
"+.	c #A2A2A2",
"@.	c #A1A1A1",
"#.	c #9F9F9F",
"$.	c #9C9C9C",
"%.	c #989898",
"&.	c #939393",
"*.	c #8D8D8D",
"=.	c #868686",
"-.	c #757575",
";.	c #6C6C6C",
">.	c #636363",
",.	c #797979",
"'.	c #949494",
").	c #A6A6A6",
"!.	c #AAAAAA",
"~.	c #ADADAD",
"{.	c #AFAFAF",
"].	c #B0B0B0",
"^.	c #AEAEAE",
"/.	c #ABABAB",
"(.	c #A7A7A7",
"_.	c #959595",
":.	c #7A7A7A",
"<.	c #5A5A5A",
"[.	c #909090",
"}.	c #999999",
"|.	c #A9A9A9",
"1.	c #B4B4B4",
"2.	c #B8B8B8",
"3.	c #BBBBBB",
"4.	c #BDBDBD",
"5.	c #BEBEBE",
"6.	c #B5B5B5",
"7.	c #A3A3A3",
"8.	c #9D9D9D",
"9.	c #C0C0C0",
"0.	c #C4C4C4",
"a.	c #C7C7C7",
"b.	c #C9C9C9",
"c.	c #CACACA",
"d.	c #C8C8C8",
"e.	c #C5C5C5",
"f.	c #C1C1C1",
"g.	c #BCBCBC",
"h.	c #B7B7B7",
"i.	c #A8A8A8",
"j.	c #8A8A8A",
"k.	c #B1B1B1",
"l.	c #BABABA",
"m.	c #CCCCCC",
"n.	c #D1D1D1",
"o.	c #D4D4D4",
"p.	c #D6D6D6",
"q.	c #D7D7D7",
"r.	c #CDCDCD",
"s.	c #C3C3C3",
"t.	c #898989",
"u.	c #B3B3B3",
"v.	c #D3D3D3",
"w.	c #D8D8D8",
"x.	c #DCDCDC",
"y.	c #E0E0E0",
"z.	c #E2E2E2",
"A.	c #E3E3E3",
"B.	c #DDDDDD",
"C.	c #CECECE",
"D.	c #CFCFCF",
"E.	c #E7E7E7",
"F.	c #EAEAEA",
"G.	c #EDEDED",
"H.	c #ECECEC",
"I.	c #DEDEDE",
"J.	c #D0D0D0",
"K.	c #B6B6B6",
"L.	c #838383",
"M.	c #2D2D2D",
"N.	c #5C5C5C",
"O.	c #A5A5A5",
"P.	c #C6C6C6",
"Q.	c #D9D9D9",
"R.	c #E6E6E6",
"S.	c #F0F0F0",
"T.	c #F4F4F4",
"U.	c #F6F6F6",
"V.	c #F7F7F7",
"W.	c #F1F1F1",
"X.	c #E8E8E8",
"Y.	c #E1E1E1",
"Z.	c #DADADA",
"`.	c #D2D2D2",
" +	c #464646",
".+	c #737373",
"++	c #B9B9B9",
"@+	c #E9E9E9",
"#+	c #EFEFEF",
"$+	c #FAFAFA",
"%+	c #FCFCFC",
"&+	c #FDFDFD",
"*+	c #FBFBFB",
"=+	c #F8F8F8",
"-+	c #F5F5F5",
";+	c #CBCBCB",
">+	c #DFDFDF",
",+	c #FEFEFE",
"'+	c #FFFFFF",
")+	c #C2C2C2",
"!+	c #ACACAC",
"~+	c #EEEEEE",
"{+	c #222222",
"]+	c #262626",
"^+	c #E4E4E4",
"/+	c #252525",
"(+	c #DBDBDB",
"_+	c #F9F9F9",
":+	c #9A9A9A",
"<+	c #F3F3F3",
"[+	c #EBEBEB",
"}+	c #6A6A6A",
"|+	c #D5D5D5",
"1+	c #212121",
"2+	c #F2F2F2",
"3+	c #272727",
"4+	c #454545",
"5+	c #969696",
"6+	c #BFBFBF",
"7+	c #B2B2B2",
"8+	c #A4A4A4",
"9+	c #E5E5E5",
"                                                . + .                                           ",
"                                    @ # $ %   & $ * = -   $ # ;                                 ",
"                                > > * % , ' ) ! ! ! ~ ~ { ] % = *                               ",
"                            # $ - ] ) ^ / ( _ : < < : _ ( / ^ ~ ' , $ #                         ",
"                    [ } # $ - ' | / 1 2 3 4 5 6 7 7 6 5 4 8 9 : 0 ^ { , & =                     ",
"                  [ + ; $ a | 0 < 3 5 b c d e f g g f h d i j 6 k l ( ^ ) % #                   ",
"                m . ; n { o : 3 6 p e q r s t u v v w x y z A f B b k C D ~ - *                 ",
"              + } > - ! 0 2 5 E h F G v H I J K L L K M N O P t z Q c R S T U , $               ",
"              @ V - U T W X d A G Y N L Z `  ...+.+.@.#.$.%.&.*.=.t -.;.>.k 1 | , =             ",
"            . > - U _ 8 >.h ,.v I '.` @.).!.~.{.].].{.^./.(.+.$._.*.P :.Q E <.: ^ , =           ",
"          m @ n ~ T 8 j f s =.[.}.@.|.{.1.2.3.4.4.5.4.3.2.6.].!.7.` L O t q p <.1 U - V         ",
"          + # ' D W >.f s H &.8.).^.6.3.9.0.a.b.c.c.c.d.e.f.g.h.].i.#._.j.t q E 8 ( ) = @       ",
"        . ; - ^ C 7 e :.H &. .i.k.l.f.a.m.n.o.p.q.q.p.o.n.r.d.s.g.1.!..._.t.G f b 9 o ] *       ",
"        @ $ ~ _ 4 B r Y L  .|.u.4.e.m.v.w.x.y.z.A.A.z.y.B.w.v.C.a.5.6./...'.H :.;.R < U - V     ",
"      m > , o S j q u J $.i.u.5.a.D.q.B.z.E.F.G.G.G.H.F.E.A.I.w.J.d.9.K.!. .K L.-.c 8 0 a #     ",
"      M.= ~ 1 N.;.s t.Z O.k.g.P.J.Q.y.R.H.S.T.U.V.V.U.T.W.G.X.Y.Z.`.b.5.1.i.` *.t f 7 C U n V   ",
"      V &  +9 >..+v K #.~.++0.D.w.Y.@+#+T.V.$+%+&+&+%+*+=+-+S.F.z.Z.n.a.g.{.+.'.Y F p 3 / ]     ",
"      = ' 0 k B ,.t.%.).1.9.;+p.>+X.S.U.$+%+&+,+'+'+'+,+&+$+U.W.F.z.w.C.)+K.|.` N y ;.N._ ~ &   ",
"    M.$ ~ : R f x M  .!+l.P.n.B.R.~+U.*+&+,+'+'+'+'+'+'+'+&+*+U.S.X.I.o.d.g.{.@.L v g X l | & V ",
"{+]+} n | l b .+L.&.7.k.5.;+q.z.H.T.$+&+'+'+'+'+'+'+'+'+'+'+&+$+-+G.^+Q.C.f.1.).Z H F p W o & > ",
"{+/+} %  +S E F =.Z ).6.)+D.(+R.S.=+%+,+'+'+'+'+'+'+'+'+'+'+'+&+_+W.X.B.`.e.2.!.:+I :.B k D , > ",
"{+/+M.& / 3 i z t.:+|.2.e.`.I.@+<+$+&+'+'+'+'+'+'+'+'+'+'+'+'+,+*+T.[+y.o.d.3.!+8.*.y d 4 ( ] V ",
"{+]+@ , D k }+:.I ` /.l.a.o.y.[+T.*+,+'+'+'+'+'+'+'+'+'+'+'+'+,+*+U.G.z.q.c.4.^.#.J t e 5 T ' # ",
"{+]+@ ] 0 <.}+s N 8.!+3.d.|+Y.H.-+*+,+'+'+'+'+'+'+'+'+'+'+'+'+,+%+U.~+A.w.;+5.{.#.M x h 5 _ ' * ",
"{+]+@ , D k }+s *.8.!+3.d.|+Y.[+T.*+,+'+'+'+'+'+'+'+'+'+'+'+'+,+%+U.~+A.q.;+5.{.#.M x h 5 _ ' # ",
"{+/+M., / 8 B :.N $./.l.a.o.>+F.<+$+&+'+'+'+'+'+'+'+'+'+'+'+'+,+*+-+H.z.p.b.g.^.#.M t e N.T a # ",
"1+/+M.- o 3 c ,.j.:+|.2.e.n.B.X.2+_+&+,+'+'+'+'+'+'+'+'+'+'+'+&+$+<+F.>+v.a.l.!+8.*.y d <.0 ] > ",
"  3+} % 4+9 j -.=.5+).1.)+C.Z.^+#+V.*+,+'+'+'+'+'+'+'+'+'+'+,+%+V.S.E.x.J.0.h.|.:+j.,.i 3 / & @ ",
"    @ n U C X g v L +.].4.c.|+y.F.<+_+%+,+'+'+'+'+'+'+'+'+,+&+$+T.H.z.q.m.6+7+8+_.Y -.j 9 4+% M.",
"      $ ) _ N.e G *.$./.2.e.J.Z.^+G.-+_+%+,+'+'+'+'+'+'+,+&+$+U.#+E.B.`.P.l.~.#.[.u f 6 < U n M.",
"      # , / 3 c F =.5+8+7+5.b.o.I.E.~+T.=+*+%+&+,+,+,+&+%+_+-+S.@+y.p.m.9.1.(.}.t.,.B <.( { %   ",
"      @ n | C 7 Q x J 8.!.K.)+r.p.>+R.G.2+U._+*+%+%+*+$+V.<+~+X.Y.w.D.0.++~...K v .+>.9  +&     ",
"      } # ' ( <.i r =.'.+.^.l.0.r.p.B.^+F.~+2+-+U.U.-+<+#+[+9+>+w.J.P.g.k.O.Z t.:.;.5 1 ~ = ;   ",
"        # - ^ l 7 h G I %.O.].3.0.m.o.Z.y.^+X.F.[+H.[+X.9+y.(+|+C.P.4.u.(.` J u q >.S o , >     ",
"          * ' 0 8 E .+w J :+).].++)+b.D.|+Q.x.>+y.y.y.B.Z.|+J.c.s.3.7+i.8.K P F i <._ ~ $ ;     ",
"        + @ % U : N.B F v M :+O.^.K.4.0.b.r.J.`.o.o.v.n.C.c.e.6+2.{.).$.K Y z d R C 4+& V       ",
"          + V ,  +C R }+r L.J %.+.!.k.h.g.9.0.P.a.a.P.0.f.4.++u./.7.:+[.Y :.e X 9 / ' # }       ",
"          m M.* ' o 2 6 }+F w I '.8.8+!.{.u.h.++l.l.++h.1.]./.O. .5+*.L.z e X W 0 ) $ } [       ",
"            + @ = ' / 2 R B A G =.J 5+` @.O.|././.!+/.|.).@.8.Z [.O x -.d 7 S 0 ~ n @ m ]+      ",
"              . @ = ' o C N.p f r x =.N K _.}.` 8.8.$.:+5+L *.H u ,.g i R 2 D ) n @ m 3+        ",
"                . @ = a 4+: 8 7 i Q F y w Y O I N N N j.=.v G r g }+b <.C o { $ @ + 3+          ",
"                  + @ * , U 0 l <.7 p ;.g A r :.s s s ,.-.g e c X 4 9 T ^ ] = M.m 3+            ",
"                    + } > % ) 4+( l 3 N.7 j p i }+}+B c E X 5 8 2 _  +) & V . 3+]+              ",
"                        M.  - & { | / _ C 9 W 3 k k 8 W 9 C 1 0 4+) & $ *   [                   ",
"                              V $ & ] { ! ^  +/ D D / o ^ U ) a - $ V @                         ",
"                                    # * $ % & , a a ] & - $ # > ;                               ",
"                                      } } @ > # * * # > ; } + m                                 ",
"                                      [ m + } @ > ; @ M.. [ ]+/+                                "};
