/* XPM */
static char * wall_xpm[] = {
"48 48 556 2",
"  	c None",
". 	c #6AD5F5",
"+ 	c #66D2F5",
"@ 	c #5DC8F2",
"# 	c #5BC4F3",
"$ 	c #5DC4F4",
"% 	c #5FC4F5",
"& 	c #62C4F6",
"* 	c #65C5F7",
"= 	c #67C5F8",
"- 	c #6BC5F9",
"; 	c #70C4FA",
"> 	c #76C4FB",
", 	c #7BC4FC",
"' 	c #7FC4FC",
") 	c #7CC4FC",
"! 	c #70C4FB",
"~ 	c #6AC4F9",
"{ 	c #66C4F8",
"] 	c #64C4F6",
"^ 	c #62C3F5",
"/ 	c #5FC3F5",
"( 	c #5CC3F4",
"_ 	c #59C3F3",
": 	c #57C3F1",
"< 	c #54C3F0",
"[ 	c #52C3F0",
"} 	c #51C3F0",
"| 	c #50C3F0",
"1 	c #50C4EF",
"2 	c #4FC4EF",
"3 	c #4FC3F0",
"4 	c #50C2F0",
"5 	c #55C6F0",
"6 	c #62D0F3",
"7 	c #67D4F3",
"8 	c #68D4F4",
"9 	c #58BBE8",
"0 	c #4CA8DE",
"a 	c #449AD4",
"b 	c #4295D2",
"c 	c #4495D4",
"d 	c #4696D7",
"e 	c #4996DB",
"f 	c #4C96DF",
"g 	c #4E96E3",
"h 	c #5296E7",
"i 	c #5796EA",
"j 	c #5C96ED",
"k 	c #6195F0",
"l 	c #6495F1",
"m 	c #6496F1",
"n 	c #6196F0",
"o 	c #5D96EE",
"p 	c #5796EB",
"q 	c #5296E8",
"r 	c #4C95DF",
"s 	c #4995DB",
"t 	c #4695D8",
"u 	c #4395D5",
"v 	c #4195D2",
"w 	c #3F95CF",
"x 	c #3C95CD",
"y 	c #3B95CB",
"z 	c #3A95CA",
"A 	c #3995CA",
"B 	c #3996C9",
"C 	c #3995C9",
"D 	c #3994C9",
"E 	c #3994CA",
"F 	c #3D99CF",
"G 	c #49A7DC",
"H 	c #58BCE8",
"I 	c #6BD6F5",
"J 	c #64D1F3",
"K 	c #4AA8DD",
"L 	c #1963BB",
"M 	c #0D46A1",
"N 	c #0E3C9A",
"O 	c #113D9F",
"P 	c #153DA5",
"Q 	c #193DAD",
"R 	c #1D3DB5",
"S 	c #223DBD",
"T 	c #263DC4",
"U 	c #2B3CCA",
"V 	c #303CCF",
"W 	c #323CD3",
"X 	c #343DD5",
"Y 	c #333DD3",
"Z 	c #303DD0",
"` 	c #2C3DCB",
" .	c #273DC5",
"..	c #223CBD",
"+.	c #1E3CB5",
"@.	c #1A3CAE",
"#.	c #163CA7",
"$.	c #123CA0",
"%.	c #0F3C9A",
"&.	c #0C3D95",
"*.	c #0A3D91",
"=.	c #083D8E",
"-.	c #073D8C",
";.	c #063D8B",
">.	c #063D8A",
",.	c #063C8A",
"'.	c #063C89",
").	c #084699",
"!.	c #1963B9",
"~.	c #4CA8DD",
"{.	c #67D2F4",
"].	c #58CAF1",
"^.	c #409CCF",
"/.	c #0A469A",
"(.	c #002774",
"_.	c #031D66",
":.	c #051E6A",
"<.	c #081D70",
"[.	c #0C1D78",
"}.	c #0F1D80",
"|.	c #131D88",
"1.	c #161D8F",
"2.	c #191D95",
"3.	c #1C1D9A",
"4.	c #1D1D9E",
"5.	c #1E1EA0",
"6.	c #1E1DA0",
"7.	c #1E1D9E",
"8.	c #1C1D9B",
"9.	c #1A1D96",
"0.	c #161D90",
"a.	c #0F1D81",
"b.	c #0C1D79",
"c.	c #091D72",
"d.	c #061D6B",
"e.	c #031D65",
"f.	c #021E60",
"g.	c #001E5C",
"h.	c #001E59",
"i.	c #001E57",
"j.	c #001E56",
"k.	c #001D56",
"l.	c #001E5A",
"m.	c #002772",
"n.	c #0C469E",
"o.	c #429AD2",
"p.	c #5BC7F2",
"q.	c #54C7F0",
"r.	c #3C98CA",
"s.	c #083C8B",
"t.	c #001D5B",
"u.	c #021540",
"v.	c #031541",
"w.	c #041545",
"x.	c #06154C",
"y.	c #081552",
"z.	c #0A1558",
"A.	c #0B155D",
"B.	c #0D1562",
"C.	c #0F1567",
"D.	c #0F156A",
"E.	c #0F156C",
"F.	c #0E1563",
"G.	c #0C155E",
"H.	c #091558",
"I.	c #051546",
"J.	c #031440",
"K.	c #02143B",
"L.	c #011538",
"M.	c #011535",
"N.	c #001534",
"O.	c #001533",
"P.	c #011533",
"Q.	c #001532",
"R.	c #001535",
"S.	c #01153E",
"T.	c #021D62",
"U.	c #0C3B96",
"V.	c #3F94CF",
"W.	c #083D89",
"X.	c #01142F",
"Y.	c #021431",
"Z.	c #031434",
"`.	c #031437",
" +	c #041439",
".+	c #05143C",
"++	c #05143F",
"@+	c #051440",
"#+	c #051441",
"$+	c #05143E",
"%+	c #05143D",
"&+	c #04143A",
"*+	c #021432",
"=+	c #00142D",
"-+	c #00142B",
";+	c #00142A",
">+	c #00142E",
",+	c #02153D",
"'+	c #041D65",
")+	c #0F3C9B",
"!+	c #4194D1",
"~+	c #59C2F1",
"{+	c #54C7EF",
"]+	c #3C98C9",
"^+	c #073D89",
"/+	c #001D55",
"(+	c #01142B",
"_+	c #01142C",
":+	c #01142D",
"<+	c #01142E",
"[+	c #001429",
"}+	c #061D6C",
"|+	c #123CA1",
"1+	c #4394D5",
"2+	c #5BC2F3",
"3+	c #041546",
"4+	c #091D73",
"5+	c #163CA8",
"6+	c #4594D8",
"7+	c #5EC2F4",
"8+	c #073D88",
"9+	c #0C1D7A",
"0+	c #193CB0",
"a+	c #4894DC",
"b+	c #61C3F5",
"c+	c #53C7F0",
"d+	c #081553",
"e+	c #101D82",
"f+	c #1E3CB7",
"g+	c #4C95E0",
"h+	c #64C3F7",
"i+	c #53C6F1",
"j+	c #3B97CA",
"k+	c #073E88",
"l+	c #0A1559",
"m+	c #131E8A",
"n+	c #223DBE",
"o+	c #4E95E4",
"p+	c #67C3F8",
"q+	c #52C6F1",
"r+	c #0C155F",
"s+	c #171E91",
"t+	c #5295E8",
"u+	c #6BC3FA",
"v+	c #04153C",
"w+	c #0D1564",
"x+	c #191E96",
"y+	c #5895EB",
"z+	c #71C3FB",
"A+	c #52C6F0",
"B+	c #001E55",
"C+	c #0E1568",
"D+	c #1C1E9B",
"E+	c #303CD0",
"F+	c #5D95EE",
"G+	c #77C3FC",
"H+	c #083D8A",
"I+	c #001428",
"J+	c #02142D",
"K+	c #1E1E9E",
"L+	c #323DD3",
"M+	c #7CC3FD",
"N+	c #02142E",
"O+	c #0F156B",
"P+	c #1E1E9F",
"Q+	c #80C3FD",
"R+	c #53C6F0",
"S+	c #00142C",
"T+	c #1E1D9F",
"U+	c #343DD4",
"V+	c #7FC4FD",
"W+	c #54C6F0",
"X+	c #3C97CA",
"Y+	c #073D8B",
"Z+	c #001D57",
"`+	c #0E1569",
" @	c #1D1E9C",
".@	c #323DD2",
"+@	c #6096EF",
"@@	c #56C6F0",
"#@	c #3E97CB",
"$@	c #083D8C",
"%@	c #001D58",
"&@	c #04143E",
"*@	c #0E1566",
"=@	c #1B1E99",
"-@	c #2E3DCE",
";@	c #5B96ED",
">@	c #75C4FB",
",@	c #58C5F1",
"'@	c #4097CC",
")@	c #0A3D8F",
"!@	c #001D5A",
"~@	c #04143B",
"{@	c #191E94",
"]@	c #2A3DC9",
"^@	c #5696EA",
"/@	c #6FC4FA",
"(@	c #5AC5F2",
"_@	c #4297CE",
":@	c #0D3D93",
"<@	c #011D5E",
"[@	c #0C155D",
"}@	c #161D8E",
"|@	c #253DC3",
"1@	c #5196E6",
"2@	c #5CC5F3",
"3@	c #4396D1",
"4@	c #0E3C98",
"5@	c #021D63",
"6@	c #01153B",
"7@	c #041437",
"8@	c #0A1557",
"9@	c #121D87",
"0@	c #213DBC",
"a@	c #67C4F8",
"b@	c #5EC5F4",
"c@	c #4596D4",
"d@	c #123C9E",
"e@	c #041D69",
"f@	c #071551",
"g@	c #0F1E80",
"h@	c #4B96DF",
"i@	c #63C5F6",
"j@	c #60C5F5",
"k@	c #4797D7",
"l@	c #071D70",
"m@	c #05154A",
"n@	c #0B1E78",
"o@	c #183DAD",
"p@	c #4796DB",
"q@	c #62C5F6",
"r@	c #4997DB",
"s@	c #183DAC",
"t@	c #0A1D77",
"u@	c #041544",
"v@	c #071E70",
"w@	c #143DA5",
"x@	c #4696D6",
"y@	c #5EC5F3",
"z@	c #4C97DE",
"A@	c #1D3DB3",
"B@	c #0E1D7E",
"C@	c #03153F",
"D@	c #051D69",
"E@	c #113C9E",
"F@	c #4496D3",
"G@	c #5DC4F2",
"H@	c #69C5F7",
"I@	c #4F97E2",
"J@	c #213DBB",
"K@	c #121D86",
"L@	c #041436",
"M@	c #02153A",
"N@	c #031D63",
"O@	c #0E3C99",
"P@	c #4296D0",
"Q@	c #5BC4F2",
"R@	c #6CC5F8",
"S@	c #5297E6",
"T@	c #161D8D",
"U@	c #0C155C",
"V@	c #011537",
"W@	c #011D5F",
"X@	c #0C3C94",
"Y@	c #4096CE",
"Z@	c #59C4F1",
"`@	c #70C5F9",
" #	c #5797EA",
".#	c #191D94",
"+#	c #0D1561",
"@#	c #05143B",
"##	c #0A3D90",
"$#	c #3E96CC",
"%#	c #57C5F0",
"&#	c #76C5FB",
"*#	c #5C97ED",
"=#	c #2F3DCF",
"-#	c #1B1D99",
";#	c #001E58",
">#	c #083D8D",
",#	c #3D97CB",
"'#	c #55C5F0",
")#	c #7BC5FC",
"!#	c #6097F0",
"~#	c #1D1D9D",
"{#	c #0F1569",
"]#	c #54C5F0",
"^#	c #7FC5FD",
"/#	c #6497F1",
"(#	c #353DD5",
"_#	c #063E8A",
":#	c #80C5FD",
"<#	c #6597F1",
"[#	c #3A97CA",
"}#	c #51C6F0",
"|#	c #7DC5FC",
"1#	c #6296F0",
"2#	c #333CD3",
"3#	c #78C5FB",
"4#	c #5E96EE",
"5#	c #73C5FA",
"6#	c #5997EB",
"7#	c #2C3DCC",
"8#	c #191D97",
"9#	c #04143D",
"0#	c #6DC5F9",
"a#	c #5497E8",
"b#	c #273DC6",
"c#	c #161D91",
"d#	c #68C5F9",
"e#	c #4F97E4",
"f#	c #233DBE",
"g#	c #131D8A",
"h#	c #0A155A",
"i#	c #041438",
"j#	c #65C5F8",
"k#	c #4C96E0",
"l#	c #1F3DB6",
"m#	c #031435",
"n#	c #063E89",
"o#	c #3B98CA",
"p#	c #52C7F0",
"q#	c #4A96DC",
"r#	c #1A3CAF",
"s#	c #06154D",
"t#	c #073E89",
"u#	c #3B98C9",
"v#	c #60C4F5",
"w#	c #4796D9",
"x#	c #173CA7",
"y#	c #041547",
"z#	c #011430",
"A#	c #53C7EF",
"B#	c #4496D5",
"C#	c #133DA1",
"D#	c #031542",
"E#	c #103D9A",
"F#	c #041E66",
"G#	c #02153E",
"H#	c #031436",
"I#	c #04143C",
"J#	c #073D8A",
"K#	c #59C4F2",
"L#	c #4195CF",
"M#	c #0C3C96",
"N#	c #011D62",
"O#	c #011532",
"P#	c #02153C",
"Q#	c #041541",
"R#	c #0B155E",
"S#	c #0D1563",
"T#	c #0F146A",
"U#	c #10146C",
"V#	c #0E1567",
"W#	c #091557",
"X#	c #081451",
"Y#	c #06154B",
"Z#	c #073C8C",
"`#	c #5DC9F2",
" $	c #449BD2",
".$	c #0C469D",
"+$	c #001E5B",
"@$	c #011E5F",
"#$	c #031E64",
"$$	c #091D71",
"%$	c #0F1D82",
"&$	c #121D89",
"*$	c #191D96",
"=$	c #1F1DA0",
"-$	c #161E8E",
";$	c #091D70",
">$	c #051D6A",
",$	c #021D66",
"'$	c #002775",
")$	c #0A469B",
"!$	c #419DD0",
"~$	c #5ACBF1",
"{$	c #4EAADD",
"]$	c #053C8B",
"^$	c #063D88",
"/$	c #063D89",
"($	c #073D8D",
"_$	c #093D90",
":$	c #0B3D94",
"<$	c #0F3D9A",
"[$	c #163CA6",
"}$	c #193CAE",
"|$	c #1D3CB6",
"1$	c #213CBD",
"2$	c #343CD5",
"3$	c #2B3DCA",
"4$	c #213CBC",
"5$	c #1D3CB4",
"6$	c #193CAD",
"7$	c #163CA5",
"8$	c #123C9F",
"9$	c #1A63BB",
"0$	c #4FABDD",
"a$	c #6AD7F3",
"b$	c #6ED9F5",
"c$	c #5BBDE8",
"d$	c #4BA8DC",
"e$	c #3D9ACF",
"f$	c #3795CA",
"g$	c #3895C9",
"h$	c #3895C8",
"i$	c #3996CA",
"j$	c #3995CB",
"k$	c #3B95CD",
"l$	c #3E95CF",
"m$	c #4595D7",
"n$	c #4895DC",
"o$	c #4B95E0",
"p$	c #4D96E4",
"q$	c #5196E8",
"r$	c #6395F1",
"s$	c #6095EF",
"t$	c #5696EB",
"u$	c #5196E7",
"v$	c #4D96E3",
"w$	c #4A96DF",
"x$	c #4896DB",
"y$	c #4596D7",
"z$	c #4396D4",
"A$	c #4196D2",
"B$	c #439BD4",
"C$	c #4EA8DE",
"D$	c #5DBEE8",
"E$	c #70DBF4",
"F$	c #65D1F4",
"G$	c #54C7F1",
"H$	c #4EC3F0",
"I$	c #4EC3EF",
"J$	c #4FC3EF",
"K$	c #4FC4F0",
"L$	c #50C4F0",
"M$	c #52C3F1",
"N$	c #56C3F2",
"O$	c #5BC3F4",
"P$	c #5DC3F5",
"Q$	c #60C3F6",
"R$	c #63C4F7",
"S$	c #65C4F9",
"T$	c #6AC4FA",
"U$	c #76C4FC",
"V$	c #7CC4FD",
"W$	c #7BC4FB",
"X$	c #75C4FA",
"Y$	c #63C4F6",
"Z$	c #5EC4F5",
"`$	c #5CC4F4",
" %	c #59C5F3",
".%	c #5DC9F3",
"+%	c #69D3F5",
"@%	c #6DD6F5",
"  . + @ # $ % & * = - ; > , ' ' ) > ! ~ { ] ^ / ( _ : < [ } | 1 2 2 2 3 3 4 4 4 4 4 4 4 5 6 7   ",
"8 9 0 a b c d e f g h i j k l m n o p q g r s t u v w x y z A A B B C A A D D E E E D E F G H I ",
"J K L M N O P Q R S T U V W X X Y Z `  ...+.@.#.$.%.&.*.=.-.;.>.>.>.>.,.,.'.'.,.,.,.'.,.).!.~.{.",
"].^./.(._.:.<.[.}.|.1.2.3.4.5.6.7.8.9.0.|.a.b.c.d.e.f.g.h.i.i.j.k.k.j.j.j.j.j.j.j.j.j.l.m.n.o.p.",
"q.r.s.t.u.v.w.x.y.z.A.B.C.D.E.E.D.C.F.G.H.y.x.I.J.K.L.M.N.O.O.P.Q.Q.Q.Q.Q.Q.Q.Q.Q.O.R.S.T.U.V.: ",
"q.r.W.k.M.X.X.Y.Z.`. +.+++@+#+#+@+$+%+&+`.Z.*+X.=+-+-+-+;+;+;+;+;+;+;+;+;+;+;+;+;+-+>+,+'+)+!+~+",
"{+]+^+/+Q.-+;+;+(+(+_+:+<+X.X.X.X.<+:+_+(+(+;+;+[+[+[+[+[+[+[+[+[+[+[+[+[+[+[+[+[+[+:+v.}+|+1+2+",
"{+]+^+/+Q.-+[+[+[+[+[+[+[+[+[+[+[+[+[+[+[+[+[+[+[+[+[+[+[+[+[+[+[+[+[+[+[+[+[+[+[+;+X.3+4+5+6+7+",
"q.]+8+/+O.-+[+[+[+[+[+[+[+[+[+[+[+[+[+[+[+[+[+[+[+[+[+[+[+[+[+[+[+[+[+[+[+[+[+[+[+;+Y.x.9+0+a+b+",
"c+]+8+j.O.-+[+[+[+[+[+[+[+[+[+[+[+[+[+[+[+[+[+[+[+[+[+[+[+[+[+[+[+[+[+[+[+[+[+[+[+-+Z.d+e+f+g+h+",
"i+j+k+j.O.-+[+[+[+[+[+[+[+[+[+[+[+[+[+[+[+[+[+[+[+[+[+[+[+[+[+[+[+[+[+[+[+[+[+[+[+_+`.l+m+n+o+p+",
"q+j+k+j.N.-+[+[+[+[+[+[+[+[+[+[+[+[+[+[+[+[+[+[+[+[+[+[+[+[+[+[+[+[+[+[+[+[+[+[+[+:+&+r+s+ .t+u+",
"q+j+8+j.N.-+[+[+[+[+[+[+[+[+[+[+[+[+[+[+[+[+[+[+[+[+[+[+[+[+[+[+[+[+[+[+[+[+[+[+[+:+v+w+x+` y+z+",
"A+j+^+B+O.-+[+[+[+[+[+[+[+[+[+[+[+[+[+[+[+[+[+[+[+[+[+[+[+[+[+[+[+[+[+[+[+[+[+[+[+<+$+C+D+E+F+G+",
"A+j+H+/+Q.-+[+[+[+[+[+[+[+[+[+[+[+[+[+[+[+[+[+[+[+[+[+[+[+[+[+[+[+[+[+[+[+[+[+[+I+J+++D.K+L+k M+",
"A+j+H+/+Q.-+[+[+[+[+[+[+[+[+[+[+[+[+[+[+[+[+[+[+[+[+[+[+[+[+[+[+[+[+[+[+[+[+[+[+I+N+@+O+P+X l Q+",
"R+j+H+k.O.S+[+[+[+[+[+[+[+[+[+[+[+[+[+[+[+[+[+[+[+[+[+[+[+[+[+[+[+[+[+[+[+[+[+[+[+<+@+O+T+U+l V+",
"W+X+Y+Z+O.S+[+[+[+[+[+[+[+[+[+[+[+[+[+[+[+[+[+[+[+[+[+[+[+[+[+[+[+[+[+[+[+[+[+[+[+<+++`+ @.@+@, ",
"@@#@$@%@N.-+[+[+[+[+[+[+[+[+[+[+[+[+[+[+[+[+[+[+[+[+[+[+[+[+[+[+[+[+[+[+[+[+[+[+[+<+&@*@=@-@;@>@",
",@'@)@!@R.-+[+[+[+[+[+[+[+[+[+[+[+[+[+[+[+[+[+[+[+[+[+[+[+[+[+[+[+[+[+[+[+[+[+[+[+<+~@B.{@]@^@/@",
"(@_@:@<@L.S+[+[+[+[+[+[+[+[+[+[+[+[+[+[+[+[+[+[+[+[+[+[+[+[+[+[+[+[+[+[+[+[+[+[+;+:+ +[@}@|@1@~ ",
"2@3@4@5@6@S+[+[+[+[+[+[+[+[+[+[+[+[+[+[+[+[+[+[+[+[+[+[+[+[+[+[+[+[+[+[+[+[+[+[+[+_+7@8@9@0@g a@",
"b@c@d@e@u.=+[+[+[+[+[+[+[+[+[+[+[+[+[+[+[+[+[+[+[+[+[+[+[+[+[+[+[+[+[+[+[+[+[+[+[+(+Z.f@g@R h@i@",
"j@k@P l@w.X.;+[+[+[+[+[+[+[+[+[+[+[+[+[+[+[+[+[+[+[+[+[+[+[+[+[+[+[+[+[+[+[+[+[+[+;+Y.m@n@o@p@j@",
"q@r@s@t@m@Y.;+[+[+[+[+[+[+[+[+[+[+[+[+[+[+[+[+[+[+[+[+[+[+[+[+[+[+[+[+[+[+[+[+[+[+;+X.u@v@w@x@y@",
"* z@A@B@f@Z.(+[+[+[+[+[+[+[+[+[+[+[+[+[+[+[+[+[+[+[+[+[+[+[+[+[+[+[+[+[+[+[+[+[+[+[+=+C@D@E@F@G@",
"H@I@J@K@8@L@(+[+[+[+[+[+[+[+[+[+[+[+[+[+[+[+[+[+[+[+[+[+[+[+[+[+[+[+[+[+[+[+[+[+[+[+-+M@N@O@P@Q@",
"R@S@|@T@U@ +_+[+[+[+[+[+[+[+[+[+[+[+[+[+[+[+[+[+[+[+[+[+[+[+[+[+[+[+[+[+[+[+[+[+[+[+-+V@W@X@Y@Z@",
"`@ #]@.#+#@#_+I+[+[+[+[+[+[+[+[+[+[+[+[+[+[+[+[+[+[+[+[+[+[+[+[+[+[+[+[+[+[+[+[+[+[+;+M.t.##$#%#",
"&#*#=#-#*@$+:+[+[+[+[+[+[+[+[+[+[+[+[+[+[+[+[+[+[+[+[+[+[+[+[+[+[+[+[+[+[+[+[+[+[+[+;+O.;#>#,#'#",
")#!#Y ~#{#@+<+[+[+[+[+[+[+[+[+[+[+[+[+[+[+[+[+[+[+[+[+[+[+[+[+[+[+[+[+[+[+[+[+[+[+[+;+O.i.Y+X+]#",
"^#/#(#T+O+#+<+[+[+[+[+[+[+[+[+[+[+[+[+[+[+[+[+[+[+[+[+[+[+[+[+[+[+[+[+[+[+[+[+[+[+[+;+O.i._#j+A+",
":#<#(#6.E.#+<+I+[+[+[+[+[+[+[+[+[+[+[+[+[+[+[+[+[+[+[+[+[+[+[+[+[+[+[+[+[+[+[+[+[+[+;+O.j._#[#}#",
"|#1#2#4.O+#+<+I+[+[+[+[+[+[+[+[+[+[+[+[+[+[+[+[+[+[+[+[+[+[+[+[+[+[+[+[+[+[+[+[+[+[+;+Q.j._#[#}#",
"3#4#E+8.C+++<+[+[+[+[+[+[+[+[+[+[+[+[+[+[+[+[+[+[+[+[+[+[+[+[+[+[+[+[+[+[+[+[+[+[+[+;+O.j.>.[#A+",
"5#6#7#8#w+9#<+[+[+[+[+[+[+[+[+[+[+[+[+[+[+[+[+[+[+[+[+[+[+[+[+[+[+[+[+[+[+[+[+[+[+[+;+O.k.>.j+A+",
"0#a#b#c#r+~@:+[+[+[+[+[+[+[+[+[+[+[+[+[+[+[+[+[+[+[+[+[+[+[+[+[+[+[+[+[+[+[+[+[+[+[+;+O.j.>.j+A+",
"d#e#f#g#h#i#_+[+[+[+[+[+[+[+[+[+[+[+[+[+[+[+[+[+[+[+[+[+[+[+[+[+[+[+[+[+[+[+[+[+[+[+;+O.j._#j+A+",
"j#k#l#e+d+m#-+[+[+[+[+[+[+[+[+[+[+[+[+[+[+[+[+[+[+[+[+[+[+[+[+[+[+[+[+[+[+[+[+[+[+[+;+O.j.n#o#p#",
"i@q#r#9+s#*+;+[+[+[+[+[+[+[+[+[+[+[+[+[+[+[+[+[+[+[+[+[+[+[+[+[+[+[+[+[+[+[+[+[+[+[+;+O.j.t#u#p#",
"v#w#x#4+y#z#;+[+[+[+[+[+[+[+[+[+[+[+[+[+[+[+[+[+[+[+[+[+[+[+[+[+[+[+[+[+[+[+[+[+[+[+;+O.j.^+u#A#",
"$ B#C#}+D#<+;+[+[+[+[+[+[+[+[+[+[+[+[+[+[+[+[+[+;+;+(+(+_+:+<+<+X.X.<+<+:+_+(+(+;+;+-+Q.k.^+]+A#",
"Q@b E#F#G#>+-+;+;+;+;+;+;+;+;+;+;+;+;+;+;+-+S+<+X.Y.Z.H# +.+$+@+#+#+@+&@I# +H#Z.Y.X.>+N.Z+J#r.A#",
"K#L#M#N#S.M.O.O#O#O#O#Q.Q.Q.Q.Q.Q.Q.Q.O.M.V@P#Q#I.s#d+z.R#S#C.T#U#U#T#V#B.A.W#X#Y#w.u.u.t.Z#o#c+",
"`# $.$m.!@j.B+B+B+B+B+B+B+B+B+B+B+j.k.;#+$@$#$d.$$9+%$&$1.*$8.4.6.=$7.3.2.-$9@}.[.;$>$,$'$)$!$~$",
". {$!.).]$>.'.^$^$^$^$^$^$/$/$/$/$/$;.($_$:$<$$.[$}$|$1$T ` Z L+2$2$L+=#3$T 4$5$6$7$8$N M 9$0$a$",
"b$c$d$e$f$g$g$h$h$h$h$h$h$g$C C C C i$j$k$l$v u m$n$o$p$q$p o n m r$s$;@t$u$v$w$x$y$z$A$B$C$D$E$",
"  . F$G$H$I$J$J$I$I$I$I$I$J$3 3 3 K$K$L$M$N$_ O$P$Q$R$S$T$! U$V$V+' W$X$/@~ { Y$v#Z$`$ %.%+%@%  "};
